# xmcd CD database file
#
# Track frame offsets:
#	151
#	23024
#	40237
#	60806
#	85093
#	103640
#	149583
#	166734
#	196983
#	214194
#
# Disc length: 3244 seconds
#
# Revision: 0
# Processed by: cddbd v1.5.1PL0 Copyright (c) Steve Scherf et al.
# Submitted via: CDex 1.51
#
DISCID=7c0caa0a
DTITLE=Enya - 天声夺人
DYEAR=1900
DGENRE=New Age
TTITLE0=渡鸦－Raven
TTITLE1=天声夺人－Enchant Sound
TTITLE2=布法罗的月亮-Buffalo Moon
TTITLE3=森林－Wood
TTITLE4=柯比比克－Kabibik
TTITLE5=七彩天堂-Painted Skiess
TTITLE6=寒冬-Winter
TTITLE7=春之歌-Aesse's Sprong Song
TTITLE8=鲁迪克-Rudyk
TTITLE9=礼物-The Gift
EXTD=
EXTT0=
EXTT1=
EXTT2=
EXTT3=
EXTT4=
EXTT5=
EXTT6=
EXTT7=
EXTT8=
EXTT9=
PLAYORDER=
